PathFileType	4	(X/Y/Z)	CPRIT_Patient3_L_HipIso_Processed.TRC
DataRate	CameraRate	NumFrames	NumMarkers	Units	OrigDataRate	OrigDataStartFrame	OrigNumFrames
150.114591291062	150.114591291062	6	39	m	150.114591291062	1148	       1311
Frame#	Time	R.Heel			R.Midfoot.Superior			R.Midfoot.Lateral			R.Toe			L.Heel			L.Midfoot.Superior			L.Midfoot.Lateral			L.Toe			R.Shank.Superior			R.Shank.Inferior			R.Shank.Lateral			R.Shank.Posterior			L.Shank.Superior			L.Shank.Inferior			L.Shank.Posterior			L.Shank.Lateral			R.Patella			L.Patella			R.Thigh.Superior			R.Thigh.Lateral			R.Thigh.Inferior			L.Thigh.Superior			L.Thigh.Inferior			L.Thigh.Lateral			L.Asis			R.Asis			Sacral			R.Shoulder			L.Shoulder			C7			J.Notch			Sternum			Thoracic			L.Elbow			L.Wrist			R.Elbow			R.Wrist			R.PSIS			L.PSIS			
		X1	Y1	Z1	X2	Y2	Z2	X3	Y3	Z3	X4	Y4	Z4	X5	Y5	Z5	X6	Y6	Z6	X7	Y7	Z7	X8	Y8	Z8	X9	Y9	Z9	X10	Y10	Z10	X11	Y11	Z11	X12	Y12	Z12	X13	Y13	Z13	X14	Y14	Z14	X15	Y15	Z15	X16	Y16	Z16	X17	Y17	Z17	X18	Y18	Z18	X19	Y19	Z19	X20	Y20	Z20	X21	Y21	Z21	X22	Y22	Z22	X23	Y23	Z23	X24	Y24	Z24	X25	Y25	Z25	X26	Y26	Z26	X27	Y27	Z27	X28	Y28	Z28	X29	Y29	Z29	X30	Y30	Z30	X31	Y31	Z31	X32	Y32	Z32	X33	Y33	Z33	X34	Y34	Z34	X35	Y35	Z35	X36	Y36	Z36	X37	Y37	Z37	X38	Y38	Z38	X39	Y39	Z39	

1148	7.640829516539	0.872783963621	0.049190396435	0.147307052217	1.041577134700	0.098884549312	0.131998254401	0.958173856668	0.037758268003	0.190183087083	1.158785005385	0.056190785033	0.120071869009	0.621388054536	0.220193412379	-0.446975591517	0.748487570276	0.310714559240	-0.535366502405	0.641783292523	0.256843987403	-0.535730971007	0.825603641858	0.303841592656	-0.632486967382	0.994855283367	0.363320708571	0.152387179360	0.990409116085	0.242211024532	0.153376751792	0.934244619347	0.296166056313	0.222416979773	0.858525011751	0.355202284564	0.180493543829	0.785505830596	0.531145258639	-0.376497945081	0.745910320702	0.420280792631	-0.430052321219	0.667536351601	0.494039960278	-0.303022265115	0.680213593834	0.481310788378	-0.409076774442	1.011057980770	0.473106748431	0.122456210294	0.839777823999	0.624833699394	-0.318285011616	1.061057212617	0.770725594864	0.104793761998	1.001382638469	0.712831866068	0.194687672669	1.038369375679	0.617456447793	0.092551831155	0.915965835832	0.876851984840	-0.183411553773	0.884548499000	0.744792058325	-0.254783415490	0.796228652093	0.845294991116	-0.210594950872	0.946417960584	0.992028818228	-0.105000847605	1.065115453850	0.916236197904	0.093890697361	0.869428214069	1.027392151956	0.103329170198	1.093316737183	1.445344549401	0.210425908394	0.996393896741	1.431176471592	-0.107548740276	1.005892929982	1.488535203941	0.077437878952	1.102683971431	1.373752161394	0.031820380583	1.120855357404	1.186650183571	0.004812770271	0.906912077845	1.348247747865	0.114382977439	0.904076576447	1.168227156752	-0.268085032029	0.961440841561	0.988354515330	-0.434238615748	0.984363739872	1.217143645011	0.434120950626	1.088758591166	0.988097283397	0.423394615077	0.889397906505	1.020073158725	0.130673413913	0.849492991649	1.035187547314	0.065535880520	
1149	7.647491094148	0.872783324514	0.049191368496	0.147298147212	1.041574053433	0.098887836498	0.131989342697	0.958173348174	0.037764202878	0.190175515856	1.158784462188	0.056191409028	0.120070566787	0.617890295933	0.226928092328	-0.456489007767	0.745059085848	0.318368334763	-0.543853707167	0.638184527973	0.264777789405	-0.544784379960	0.821950199003	0.312660527192	-0.641222126325	0.994657105346	0.363346656819	0.152142828482	0.990302323162	0.242247554887	0.153220892791	0.933997322736	0.296232056259	0.222145253549	0.858308055287	0.355190803381	0.180061795935	0.782895707671	0.536484758551	-0.381920062727	0.742972149225	0.426487235317	-0.436948054799	0.665048499816	0.498628179808	-0.308703321204	0.677515664828	0.487379665401	-0.414989789222	1.010856234719	0.473088662042	0.122104233782	0.837347992206	0.629243498404	-0.322734131060	1.060642849764	0.770625592025	0.104485851489	1.000870348129	0.712787988384	0.194567551777	1.038134181733	0.617405051194	0.092254224481	0.915269589714	0.879025693597	-0.184557579675	0.883087319254	0.748033191117	-0.257396045493	0.795286882053	0.848370717469	-0.211905742543	0.946338220352	0.992920721312	-0.105234331814	1.064983239741	0.916064187635	0.093354409399	0.869389380626	1.027536569646	0.103243077137	1.093901879865	1.445154922509	0.210811130237	0.996864448404	1.431156154821	-0.107220690882	1.006428234122	1.488526139593	0.077899138016	1.103065515462	1.373684928477	0.032181630161	1.120979708088	1.186608531424	0.004983561237	0.907307273404	1.348353532106	0.114826059215	0.904603718298	1.168239218394	-0.267948662730	0.961544796375	0.988381147083	-0.434211692850	0.984633979359	1.217151919136	0.434526399487	1.088777192463	0.988076728590	0.423401683871	0.889349683088	1.020126068868	0.130557855309	0.849518597233	1.035415796176	0.065481052404	
1150	7.654152671756	0.872782749970	0.049192337718	0.147289626012	1.041571405154	0.098892198784	0.131982675787	0.958172828629	0.037769715931	0.190168570077	1.158784078572	0.056192060054	0.120069956417	0.614511644593	0.233678741159	-0.465784464712	0.741763610469	0.326014111053	-0.552115280978	0.634725812474	0.272695592204	-0.553611919449	0.818449410433	0.321457812051	-0.649698102639	0.994458888503	0.363372369620	0.151906945973	0.990196578135	0.242284804709	0.153071432296	0.933750094109	0.296297614265	0.221880371851	0.858091784057	0.355179305835	0.179635993525	0.780382782331	0.541810267205	-0.387202180595	0.740141900783	0.432685484265	-0.443671287885	0.662649056860	0.503210415193	-0.314259920659	0.674915566597	0.493424515611	-0.420754224597	1.010655782847	0.473074223489	0.121764442097	0.834997432851	0.633635697697	-0.327083372352	1.060231852659	0.770532188551	0.104167514367	1.000361078125	0.712751866552	0.194430985527	1.037900638542	0.617357370352	0.091958052293	0.914617542267	0.881189461899	-0.185672959858	0.881695140869	0.751254463066	-0.259932125832	0.794394415093	0.851408956022	-0.213181248559	0.946260739454	0.993789636997	-0.105475823984	1.064848595948	0.915892461853	0.092808986609	0.869343511286	1.027676982889	0.103140871460	1.094472460177	1.444959446980	0.211184712533	0.997322835168	1.431135734265	-0.106901614586	1.006949934362	1.488511033868	0.078350469267	1.103434588081	1.373613271594	0.032531652587	1.121096570459	1.186563904755	0.005137276378	0.907689982096	1.348451068368	0.115254577738	0.905111400193	1.168251540113	-0.267821325270	0.961649717383	0.988408730795	-0.434186724677	0.984889058840	1.217155215463	0.434918661138	1.088793054227	0.988056705985	0.423406235812	0.889293452970	1.020177322221	0.130427626482	0.849540030033	1.035636186074	0.065409391035	
1151	7.660814249364	0.872782238054	0.049193295251	0.147281516275	1.041569205951	0.098897665059	0.131978270407	0.958172298971	0.037774795283	0.190162268840	1.158783845391	0.056192745969	0.120070027437	0.611253881678	0.240434308092	-0.474857717584	0.738601384544	0.333640647455	-0.560149420581	0.631407538848	0.280586068091	-0.562210772769	0.815100435325	0.330220607628	-0.657915301394	0.994261267948	0.363397754459	0.151680097328	0.990092078454	0.242322563469	0.152928757149	0.933503789296	0.296362454558	0.221623073621	0.857876864638	0.355167749182	0.179217628143	0.777968549214	0.547114357963	-0.392342992426	0.737420487722	0.438866487291	-0.450220111605	0.660339816030	0.507779947953	-0.319689060798	0.672413478826	0.499437345511	-0.426367960929	1.010457155828	0.473063412999	0.121437868102	0.832730370629	0.638004438925	-0.331327681033	1.059825766368	0.770446034159	0.103839038244	0.999857691795	0.712723670691	0.194276217244	1.037669309183	0.617313861766	0.091664039043	0.914008954515	0.883339984380	-0.186756863796	0.880371246323	0.754451878497	-0.262392923039	0.793550133883	0.854406355132	-0.214419946654	0.946184841245	0.994633301472	-0.105723912656	1.064711754131	0.915721407393	0.092256912937	0.869290990031	1.027813345106	0.103024250613	1.095027529248	1.444759115483	0.211545790971	0.997767687783	1.431114721754	-0.106592143197	1.007457011730	1.488490195030	0.078790688201	1.103790486572	1.373537558366	0.032869696538	1.121205786321	1.186516500198	0.005274039222	0.908059579786	1.348540551303	0.115667954228	0.905597957438	1.168263966828	-0.267703171691	0.961754727692	0.988437119201	-0.434164201296	0.985128635486	1.217153854595	0.435296681609	1.088806137973	0.988037304453	0.423408299136	0.889229596501	1.020226898216	0.130284460104	0.849557380278	1.035848813779	0.065322534475	
1152	7.667475826972	0.872781787056	0.049194232769	0.147273841541	1.041567467494	0.098904252016	0.131976122565	0.958171760068	0.037779433485	0.190156624644	1.158783751434	0.056193475654	0.120070764037	0.608118151418	0.247184244708	-0.483705540602	0.735572063027	0.341237267560	-0.567955156260	0.628229442143	0.288438576648	-0.570578990738	0.811901858382	0.338936744623	-0.665874968996	0.994064899042	0.363422737042	0.151462734834	0.989989018364	0.242360618065	0.152793176461	0.933259246348	0.296426322561	0.221373997731	0.857663951328	0.355156105756	0.178808063738	0.775654054615	0.552390050332	-0.397341805781	0.734808375497	0.445021684081	-0.456593287443	0.658122167241	0.512330510550	-0.324988372538	0.670009292653	0.505410699177	-0.431829527845	1.010260888162	0.473056198076	0.121125387180	0.830550524716	0.642344289460	-0.335462732585	1.059426096801	0.770367760972	0.103500719883	0.999363009557	0.712703525972	0.194101461932	1.037440792694	0.617274968922	0.091372756676	0.913442874092	0.885474202801	-0.187808637278	0.879114672734	0.757621781191	-0.264780045235	0.792752694377	0.857359887413	-0.215620480270	0.946109945679	0.995449732000	-0.105977123041	1.064572917704	0.915551433899	0.091700755319	0.869232228967	1.027945651633	0.102894989369	1.095566204082	1.444555015878	0.211893575329	0.998197649368	1.431092666849	-0.106292870704	1.007948478719	1.488464011272	0.079218673065	1.104132560516	1.373458240240	0.033195079587	1.121307244876	1.186466591192	0.005394115978	0.908415506387	1.348622255076	0.116065726868	0.906061853102	1.168276352471	-0.267594308197	0.961858958550	0.988466153422	-0.434144575582	0.985352512229	1.217148213350	0.435659496738	1.088816433151	0.988018609066	0.423407920866	0.889158525643	1.020274797076	0.130130142067	0.849570737879	1.036053856524	0.065222201903	
1153	7.674137404580	0.872781395670	0.049195141969	0.147266621098	1.041566196625	0.098911962590	0.131976207467	0.958171212822	0.037783627155	0.190151643690	1.158783783883	0.056194258816	0.120072145615	0.605104994379	0.253918543644	-0.492325655014	0.732674762147	0.348793884672	-0.575532289504	0.625190648029	0.296243186564	-0.578715421106	0.808851747274	0.347594752103	-0.673579110928	0.993870450588	0.363447262464	0.151255196442	0.989887589815	0.242398756837	0.152664920329	0.933017275626	0.296488987408	0.221133679098	0.857453679232	0.355144363427	0.178408523098	0.773439908968	0.557630827083	-0.402198489265	0.732305606093	0.451143029375	-0.462790195776	0.655997103051	0.516856294842	-0.330156078915	0.667702628721	0.511337669450	-0.437138058727	1.010067515190	0.473052534389	0.120827711373	0.828461056640	0.646650255911	-0.339484963243	1.059034294043	0.770297976522	0.103152872979	0.998879757401	0.712691514372	0.193904962701	1.037215724890	0.617241113400	0.091084626765	0.912918160069	0.887589345963	-0.188827787349	0.877924241947	0.760760853875	-0.267095378502	0.792000544272	0.860266856822	-0.216781665209	0.946035581744	0.996237258981	-0.106233928823	1.064432261495	0.915382972407	0.091143134642	0.869167663467	1.028073936685	0.102754923834	1.096087676824	1.444348315139	0.212227356867	0.998611401463	1.431069164651	-0.106004344035	1.008423389250	1.488432943792	0.079633379066	1.104460217831	1.373375845084	0.033507194478	1.121400881978	1.186414523375	0.005497909928	0.908757270602	1.348696526738	0.116447559485	0.906501697875	1.168288560320	-0.267494790697	0.961961565745	0.988495665071	-0.434128250095	0.985560644941	1.217138720210	0.436006251637	1.088823958281	0.988000699576	0.423405168115	0.889080679997	1.020321037181	0.129966493655	0.849580188921	1.036251567072	0.065110178875	
